<?xml version="1.0" encoding="utf-8"?>
<!-- Generator: Adobe Illustrator 17.0.0, SVG Export Plug-In . SVG Version: 6.00 Build 0)  -->
<!DOCTYPE svg PUBLIC "-//W3C//DTD SVG 1.1//EN" "http://www.w3.org/Graphics/SVG/1.1/DTD/svg11.dtd">
<svg version="1.1" id="Capa_1" xmlns:sketch="http://www.bohemiancoding.com/sketch/ns"
	 xmlns="http://www.w3.org/2000/svg" xmlns:xlink="http://www.w3.org/1999/xlink" x="0px" y="0px" width="322px" height="41px"
	 viewBox="0 0 322 41" enable-background="new 0 0 322 41" xml:space="preserve">
<title>logo</title>
<desc>Created with Sketch.</desc>
<path fill="#36486A" d="M69.713,39.213c-1.817,0.909-5.452,1.817-10.108,1.817c-10.79,0-18.911-6.815-18.911-19.365
	c0-11.983,8.121-20.103,19.99-20.103c4.77,0,7.78,1.022,9.086,1.704l-1.193,4.032c-1.874-0.909-4.543-1.59-7.723-1.59
	c-8.973,0-14.936,5.736-14.936,15.787c0,9.37,5.395,15.39,14.708,15.39c3.01,0,6.076-0.625,8.064-1.59L69.713,39.213z"/>
<path fill="#36486A" d="M75.731,0.142h4.998v40.32h-4.998V0.142z"/>
<path fill="#36486A" d="M91.916,27.628c0.114,6.758,4.43,9.541,9.427,9.541c3.578,0,5.736-0.625,7.61-1.42l0.852,3.578
	c-1.76,0.795-4.77,1.704-9.143,1.704c-8.462,0-13.516-5.565-13.516-13.857s4.884-14.822,12.891-14.822
	c8.973,0,11.358,7.894,11.358,12.948c0,1.022-0.114,1.817-0.17,2.328H91.916z M106.567,24.05c0.057-3.18-1.306-8.121-6.928-8.121
	c-5.054,0-7.269,4.657-7.667,8.121H106.567z"/>
<path fill="#36486A" d="M132.803,40.462l-0.398-3.464h-0.17c-1.533,2.158-4.486,4.089-8.405,4.089c-5.565,0-8.405-3.918-8.405-7.894
	c0-6.644,5.906-10.279,16.526-10.222v-0.568c0-2.272-0.625-6.36-6.247-6.36c-2.556,0-5.225,0.795-7.156,2.044l-1.136-3.294
	c2.272-1.476,5.565-2.442,9.029-2.442c8.405,0,10.449,5.736,10.449,11.244v10.279c0,2.385,0.114,4.714,0.454,6.588H132.803z
	 M132.065,26.435c-5.452-0.114-11.642,0.852-11.642,6.19c0,3.237,2.158,4.77,4.713,4.77c3.578,0,5.849-2.272,6.644-4.6
	c0.17-0.511,0.284-1.079,0.284-1.59V26.435z"/>
<path fill="#36486A" d="M144.955,21.551c0-3.237-0.057-6.02-0.227-8.575h4.373l0.17,5.395h0.227c1.249-3.691,4.259-6.02,7.61-6.02
	c0.568,0,0.965,0.057,1.42,0.17v4.714c-0.511-0.114-1.022-0.17-1.704-0.17c-3.521,0-6.02,2.669-6.701,6.417
	c-0.114,0.681-0.227,1.476-0.227,2.328v14.652h-4.941V21.551z"/>
<path fill="#FFFFFF" d="M172.1,40.462L159.606,2.186h5.338l5.963,18.854c1.647,5.168,3.067,9.825,4.089,14.311h0.114
	c1.079-4.429,2.669-9.257,4.373-14.254l6.474-18.911h5.281l-13.686,38.276H172.1z"/>
<path fill="#FFFFFF" d="M218.213,26.492c0,10.165-7.042,14.595-13.686,14.595c-7.44,0-13.175-5.452-13.175-14.141
	c0-9.2,6.02-14.595,13.63-14.595C212.875,12.351,218.213,18.087,218.213,26.492z M196.406,26.776c0,6.02,3.464,10.563,8.348,10.563
	c4.77,0,8.348-4.486,8.348-10.676c0-4.657-2.328-10.563-8.234-10.563C198.961,16.1,196.406,21.551,196.406,26.776z"/>
<path fill="#FFFFFF" d="M230.081,5.253c0.057,1.704-1.192,3.067-3.18,3.067c-1.761,0-3.01-1.363-3.01-3.067
	c0-1.76,1.306-3.123,3.124-3.123C228.888,2.129,230.081,3.492,230.081,5.253z M224.516,40.462V12.976h4.997v27.486H224.516z"/>
<path fill="#FFFFFF" d="M257.396,39.44c-1.306,0.681-4.202,1.59-7.894,1.59c-8.291,0-13.686-5.622-13.686-14.027
	c0-8.462,5.793-14.595,14.765-14.595c2.953,0,5.565,0.738,6.928,1.42l-1.136,3.862c-1.192-0.681-3.066-1.306-5.792-1.306
	c-6.304,0-9.711,4.657-9.711,10.392c0,6.36,4.089,10.279,9.541,10.279c2.839,0,4.714-0.738,6.133-1.363L257.396,39.44z"/>
<path fill="#FFFFFF" d="M265.687,27.628c0.113,6.758,4.429,9.541,9.427,9.541c3.578,0,5.736-0.625,7.61-1.42l0.852,3.578
	c-1.761,0.795-4.77,1.704-9.143,1.704c-8.462,0-13.516-5.565-13.516-13.857s4.884-14.822,12.891-14.822
	c8.973,0,11.358,7.894,11.358,12.948c0,1.022-0.114,1.817-0.17,2.328H265.687z M280.338,24.05c0.057-3.18-1.306-8.121-6.928-8.121
	c-5.054,0-7.269,4.657-7.667,8.121H280.338z"/>
<path fill="#36486A" d="M301.861,2.186v2.555h-4.941v12.891h-3.066V4.742h-4.941V2.186H301.861z M318.557,17.633l-0.568-9.086
	c-0.057-1.193-0.057-2.669-0.114-4.316h-0.17c-0.398,1.363-0.852,3.18-1.306,4.6l-2.783,8.575h-3.18l-2.783-8.802
	c-0.284-1.192-0.738-3.01-1.079-4.373h-0.171c0,1.42-0.057,2.896-0.114,4.316l-0.568,9.086h-2.953l1.136-15.447h4.6l2.669,7.553
	c0.341,1.193,0.625,2.328,1.022,3.918h0.057c0.398-1.42,0.738-2.726,1.079-3.862l2.669-7.61h4.43l1.193,15.447H318.557z"/>
<path fill="#36486A" d="M13.398,0.432c3.592-0.767,7.434-0.31,10.743,1.29c4.175,1.989,7.444,5.781,8.779,10.211
	c0.741,2.468,0.97,5.127,0.471,7.662c-0.805-4.11-3.106-7.929-6.488-10.421C24.017,7.005,20.414,5.798,16.8,5.843
	c-4.369-0.019-8.702,1.803-11.77,4.907c-2.346,2.317-3.943,5.353-4.606,8.577l-0.041,0.185C0.137,18.864,0.155,18.168,0.1,17.49
	c-0.165-3.982,1.157-8.004,3.657-11.108C6.152,3.362,9.622,1.214,13.398,0.432L13.398,0.432z"/>
<path fill="#FFFFFF" d="M0.384,19.511l0.041-0.185c0.01,0.315,0.013,0.631,0.073,0.943c0.904,4.235,3.532,8.062,7.154,10.434
	c3.282,2.187,7.363,3.143,11.277,2.641c3.899-0.459,7.6-2.374,10.251-5.267c2.194-2.375,3.717-5.397,4.204-8.599
	c0.683,3.729,0.055,7.688-1.778,11.009c-1.825,3.359-4.835,6.06-8.377,7.499c-3.918,1.614-8.461,1.653-12.411,0.118
	c-3.657-1.402-6.774-4.142-8.655-7.576C0.337,27.209-0.361,23.237,0.384,19.511L0.384,19.511z"/>
</svg>
