<?xml version="1.0" encoding="UTF-8" standalone="no"?>
<svg width="220px" height="29px" viewBox="0 0 220 29" version="1.1" xmlns="http://www.w3.org/2000/svg" xmlns:xlink="http://www.w3.org/1999/xlink" xmlns:sketch="http://www.bohemiancoding.com/sketch/ns">
    <!-- Generator: Sketch 3.3.3 (12081) - http://www.bohemiancoding.com/sketch -->
    <title>logo</title>
    <desc>Created with Sketch.</desc>
    <defs></defs>
    <g id="Page-1" stroke="none" stroke-width="1" fill="none" fill-rule="evenodd" sketch:type="MSPage">
        <g id="Desktop-HD" sketch:type="MSArtboardGroup" transform="translate(-250.000000, -62.000000)" fill="#FFFFFF">
            <g id="logo" sketch:type="MSLayerGroup" transform="translate(250.000000, 62.000000)">
                <path d="M11.4980309,3.98976887 C17.1389112,3.98976887 21.8193054,8.08397275 22.7471607,13.4637672 C22.8560275,12.8277829 22.9166066,12.1752472 22.9166066,11.5082107 C22.9166066,5.19479947 17.8035254,0.0770446208 11.4980309,0.0770446208 C5.19048782,0.0770446208 0.0775529585,5.19479947 0.0775529585,11.5082107 C0.0775529585,12.1752472 0.138863694,12.8277829 0.248023141,13.4637672 C1.17456151,8.08397275 5.85744326,3.98976887 11.4980309,3.98976887" id="Fill-1" sketch:type="MSShapeGroup"></path>
                <path d="M11.4980309,22.8317193 C5.85744326,22.8317193 1.17456151,18.7366366 0.248023141,13.3555239 C0.138863694,13.9929729 0.0775529585,14.6455086 0.0775529585,15.3123987 C0.0775529585,21.6250775 5.19048782,26.7438577 11.4980309,26.7438577 C17.8035254,26.7438577 22.9166066,21.6250775 22.9166066,15.3123987 C22.9166066,14.6455086 22.8560275,13.9929729 22.7471607,13.3555239 C21.8193054,18.7366366 17.1389112,22.8317193 11.4980309,22.8317193" id="Fill-2" sketch:type="MSShapeGroup"></path>
                <path d="M32.9594221,13.0329911 C33.671885,13.2206226 34.5726699,13.2957631 35.6608989,13.2957631 C39.6007355,13.2957631 42.0022433,11.3426966 42.0022433,7.92475697 C42.0022433,4.54431437 39.6007355,2.92916032 36.0359333,2.92916032 C34.6101295,2.92916032 33.5221932,3.04194427 32.9594221,3.19237169 L32.9594221,13.0329911 L32.9594221,13.0329911 Z M29.6948815,0.82610582 C31.2708161,0.563040917 33.3346028,0.337619489 35.9610142,0.337619489 C39.1880952,0.337619489 41.5519972,1.08887778 43.0528664,2.44096693 C44.4037512,3.6429216 45.2667839,5.48335062 45.2667839,7.73683254 C45.2667839,10.0282509 44.5911952,11.8308899 43.3156685,13.1454821 C41.5519972,14.9862041 38.7753086,15.9252403 35.5858335,15.9252403 C34.6101295,15.9252403 33.7099298,15.8874504 32.9594221,15.6998189 L32.9594221,25.8410002 L29.6948815,25.8410002 L29.6948815,0.82610582 L29.6948815,0.82610582 Z" id="Fill-3" sketch:type="MSShapeGroup"></path>
                <path d="M58.1375022,16.5635682 C54.5355331,16.4884277 50.4451267,17.126902 50.4451267,20.6576256 C50.4451267,22.835967 51.8713695,23.8126467 53.5222232,23.8126467 C55.9238774,23.8126467 57.4623525,22.3101302 57.9875177,20.7702631 C58.0998963,20.3947071 58.1375022,20.0190048 58.1375022,19.7185893 L58.1375022,16.5635682 L58.1375022,16.5635682 Z M61.3271237,21.4840243 C61.3271237,23.0615349 61.4018964,24.601402 61.5894868,25.8410002 L58.6252079,25.8410002 L58.3626984,23.5497283 L58.2501735,23.5497283 C57.2367173,24.9771044 55.2858945,26.2541996 52.6969427,26.2541996 C49.0196155,26.2541996 47.1432729,23.6625123 47.1432729,21.0331815 C47.1432729,16.6387086 51.0459426,14.2347993 58.0625831,14.2721498 L58.0625831,13.8967404 C58.0625831,12.4320138 57.6499428,9.6900455 53.9348635,9.72783545 C52.208798,9.72783545 50.4451267,10.2158824 49.1698926,11.0799246 L48.4190922,8.86379321 C49.9201078,7.92475697 52.1337326,7.28613616 54.4228618,7.28613616 C59.9760926,7.28613616 61.3271237,11.0799246 61.3271237,14.6856422 L61.3271237,21.4840243 L61.3271237,21.4840243 Z" id="Fill-4" sketch:type="MSShapeGroup"></path>
                <path d="M70.4827626,3.3048627 L70.4827626,7.66183854 L75.2105665,7.66183854 L75.2105665,10.1783854 L70.4827626,10.1783854 L70.4827626,19.9815078 C70.4827626,22.2352826 71.1203064,23.5119384 72.9593358,23.5119384 C73.8599744,23.5119384 74.3849933,23.4370908 74.8729916,23.2868099 L75.0231225,25.8032102 C74.3849933,26.0286317 73.3719761,26.2541996 72.0963031,26.2541996 C70.5575353,26.2541996 69.3191755,25.7282162 68.5316472,24.8643205 C67.6307159,23.8504367 67.2555352,22.2352826 67.2555352,20.0942917 L67.2555352,10.1783854 L64.4415334,10.1783854 L64.4415334,7.66183854 L67.2555352,7.66183854 L67.2555352,4.28124947 L70.4827626,3.3048627" id="Fill-5" sketch:type="MSShapeGroup"></path>
                <path d="M78.9252069,7.66183854 L82.2270607,7.66183854 L82.2270607,25.8410002 L78.9252069,25.8410002 L78.9252069,7.66183854 Z M82.6023877,2.55360441 C82.6023877,3.68041861 81.8147131,4.58181138 80.5011415,4.58181138 C79.3002413,4.58181138 78.5127129,3.68041861 78.5127129,2.55360441 C78.5127129,1.42693668 79.3379935,0.487753968 80.5763533,0.487753968 C81.7769609,0.487753968 82.6023877,1.38914674 82.6023877,2.55360441 L82.6023877,2.55360441 Z" id="Fill-6" sketch:type="MSShapeGroup"></path>
                <path d="M99.2247669,14.9862041 C99.2625191,12.9202071 98.3617342,9.65240203 94.6470938,9.65240203 C91.2700283,9.65240203 89.8442245,12.6949322 89.5814224,14.9862041 L99.2247669,14.9862041 L99.2247669,14.9862041 Z M89.5441092,17.3524699 C89.6191746,21.8217903 92.4333227,23.6625123 95.7729287,23.6625123 C98.1366843,23.6625123 99.6002403,23.2494593 100.800848,22.723476 L101.401225,25.0897419 C100.237784,25.6155787 98.211896,26.2541996 95.3226825,26.2541996 C89.7316995,26.2541996 86.3919472,22.5355516 86.3919472,17.0520545 C86.3919472,11.568118 89.6191746,7.28613616 94.9097496,7.28613616 C100.87606,7.28613616 102.414388,12.4693643 102.414388,15.8123099 C102.414388,16.4884277 102.376929,16.9767675 102.301863,17.3524699 L89.5441092,17.3524699 L89.5441092,17.3524699 Z" id="Fill-7" sketch:type="MSShapeGroup"></path>
                <path d="M106.50421,12.5820018 C106.50421,10.6665787 106.46675,9.16406217 106.354079,7.66183854 L109.281044,7.66183854 L109.468635,10.6665787 L109.5437,10.6665787 C110.444192,8.97628422 112.545585,7.28613616 115.547177,7.28613616 C118.06121,7.28613616 121.963587,8.78865273 121.963587,15.0234081 L121.963587,25.8410002 L118.661587,25.8410002 L118.661587,15.36176 C118.661587,12.4320138 117.573212,9.99075388 114.459241,9.99075388 C112.320096,9.99075388 110.631929,11.5304745 110.031406,13.37105 C109.881129,13.7841029 109.806356,14.3474368 109.806356,14.9109171 L109.806356,25.8410002 L106.50421,25.8410002 L106.50421,12.5820018" id="Fill-8" sketch:type="MSShapeGroup"></path>
                <path d="M131.156685,3.3048627 L131.156685,7.66183854 L135.884636,7.66183854 L135.884636,10.1783854 L131.156685,10.1783854 L131.156685,19.9815078 C131.156685,22.2352826 131.794522,23.5119384 133.633405,23.5119384 C134.533751,23.5119384 135.059209,23.4370908 135.546768,23.2868099 L135.696899,25.8032102 C135.059209,26.0286317 134.045753,26.2541996 132.77008,26.2541996 C131.231605,26.2541996 129.993537,25.7282162 129.20557,24.8643205 C128.305078,23.8504367 127.929458,22.2352826 127.929458,20.0942917 L127.929458,10.1783854 L125.115456,10.1783854 L125.115456,7.66183854 L127.929458,7.66183854 L127.929458,4.28124947 L131.156685,3.3048627" id="Fill-9" sketch:type="MSShapeGroup"></path>
                <path d="M145.265471,25.8410002 L136.972572,0.525543915 L140.537667,0.525543915 L144.476772,12.9954941 C145.527395,16.4134337 146.465347,19.4933144 147.179419,22.4605576 L147.254046,22.4605576 C147.966655,19.5306649 148.980697,16.3380003 150.142528,13.0329911 L154.42111,0.525543915 L157.90953,0.525543915 L148.868025,25.8410002 L145.265471,25.8410002" id="Fill-10" sketch:type="MSShapeGroup"></path>
                <path d="M161.362831,16.7888431 C161.362831,20.7702631 163.614793,23.7751497 166.841289,23.7751497 C169.993159,23.7751497 172.357792,20.8079065 172.357792,16.7137026 C172.357792,13.633822 170.818439,9.76518598 166.915916,9.76518598 C163.051437,9.76518598 161.362831,13.37105 161.362831,16.7888431 L161.362831,16.7888431 Z M175.733541,16.6012116 C175.733541,23.3241604 171.043782,26.2541996 166.690573,26.2541996 C161.813516,26.2541996 157.985619,22.6483355 157.985619,16.9016271 C157.985619,10.8543567 162.000814,7.28613616 166.992005,7.28613616 C172.207076,7.28613616 175.733541,11.0799246 175.733541,16.6012116 L175.733541,16.6012116 Z" id="Fill-11" sketch:type="MSShapeGroup"></path>
                <path d="M179.899452,7.66183854 L183.202037,7.66183854 L183.202037,25.8410002 L179.899452,25.8410002 L179.899452,7.66183854 Z M183.576632,2.55360441 C183.576632,3.68041861 182.789397,4.58181138 181.475386,4.58181138 C180.274047,4.58181138 179.486811,3.68041861 179.486811,2.55360441 C179.486811,1.42693668 180.312092,0.487753968 181.550013,0.487753968 C182.751352,0.487753968 183.576632,1.38914674 183.576632,2.55360441 L183.576632,2.55360441 Z" id="Fill-12" sketch:type="MSShapeGroup"></path>
                <path d="M201.624523,25.2023794 C200.762661,25.6155787 198.848712,26.2541996 196.409452,26.2541996 C190.930994,26.2541996 187.366484,22.5355516 187.366484,16.9767675 C187.366484,11.3801936 191.194381,7.28613616 197.122061,7.28613616 C199.072591,7.28613616 200.799242,7.77418307 201.699149,8.26281587 L200.949958,10.7792162 C200.161259,10.3661633 198.923339,9.91532046 197.122061,9.91532046 C192.957614,9.91532046 190.705651,13.0329911 190.705651,16.7888431 C190.705651,20.9956845 193.406836,23.5872253 197.00939,23.5872253 C198.885294,23.5872253 200.124678,23.1363825 201.06263,22.723476 L201.624523,25.2023794" id="Fill-13" sketch:type="MSShapeGroup"></path>
                <path d="M216.783931,14.9862041 C216.821976,12.9202071 215.922069,9.65240203 212.206843,9.65240203 C208.829632,9.65240203 207.40295,12.6949322 207.141026,14.9862041 L216.783931,14.9862041 L216.783931,14.9862041 Z M207.102981,17.3524699 C207.17907,21.8217903 209.992926,23.6625123 213.332093,23.6625123 C215.696727,23.6625123 217.15999,23.2494593 218.359866,22.723476 L218.961267,25.0897419 C217.797973,25.6155787 215.771353,26.2541996 212.881408,26.2541996 C207.290279,26.2541996 203.951111,22.5355516 203.951111,17.0520545 C203.951111,11.568118 207.17907,7.28613616 212.468768,7.28613616 C218.435956,7.28613616 219.973845,12.4693643 219.973845,15.8123099 C219.973845,16.4884277 219.935801,16.9767675 219.861174,17.3524699 L207.102981,17.3524699 L207.102981,17.3524699 Z" id="Fill-14" sketch:type="MSShapeGroup"></path>
            </g>
        </g>
    </g>
</svg>