<?xml version="1.0" encoding="utf-8"?>
<!-- Generator: Adobe Illustrator 17.0.0, SVG Export Plug-In . SVG Version: 6.00 Build 0)  -->
<!DOCTYPE svg PUBLIC "-//W3C//DTD SVG 1.1//EN" "http://www.w3.org/Graphics/SVG/1.1/DTD/svg11.dtd">
<svg version="1.1" id="Capa_1" xmlns:sketch="http://www.bohemiancoding.com/sketch/ns"
	 xmlns="http://www.w3.org/2000/svg" xmlns:xlink="http://www.w3.org/1999/xlink" x="0px" y="0px" width="220px" height="29px"
	 viewBox="0 0 220 29" enable-background="new 0 0 220 29" xml:space="preserve">
<title>logo</title>
<desc>Created with Sketch.</desc>
<path fill="#FFFFFF" d="M48.114,27.22c-1.235,0.618-3.706,1.235-6.871,1.235c-7.335,0-12.855-4.632-12.855-13.164
	c0-8.145,5.52-13.666,13.588-13.666c3.243,0,5.289,0.695,6.177,1.158l-0.811,2.741c-1.274-0.618-3.088-1.081-5.25-1.081
	c-6.099,0-10.153,3.899-10.153,10.732c0,6.37,3.667,10.462,9.998,10.462c2.046,0,4.131-0.425,5.482-1.081L48.114,27.22z"/>
<path fill="#FFFFFF" d="M52.205,0.66h3.397v27.408h-3.397V0.66z"/>
<path fill="#FFFFFF" d="M63.207,19.344c0.077,4.594,3.011,6.485,6.408,6.485c2.432,0,3.899-0.425,5.173-0.965l0.579,2.432
	c-1.197,0.54-3.243,1.158-6.215,1.158c-5.752,0-9.188-3.783-9.188-9.419S63.284,8.96,68.727,8.96c6.099,0,7.721,5.366,7.721,8.802
	c0,0.695-0.077,1.235-0.116,1.583H63.207z M73.166,16.912c0.039-2.162-0.888-5.52-4.71-5.52c-3.436,0-4.941,3.166-5.211,5.52H73.166
	z"/>
<path fill="#FFFFFF" d="M91,28.069l-0.27-2.355h-0.116c-1.042,1.467-3.05,2.779-5.713,2.779c-3.783,0-5.713-2.664-5.713-5.366
	c0-4.517,4.015-6.987,11.234-6.949v-0.386c0-1.544-0.425-4.324-4.246-4.324c-1.737,0-3.552,0.54-4.864,1.39l-0.772-2.239
	c1.544-1.004,3.783-1.66,6.138-1.66c5.713,0,7.103,3.899,7.103,7.643v6.987c0,1.621,0.077,3.204,0.309,4.478H91z M90.499,18.534
	c-3.706-0.077-7.914,0.579-7.914,4.208c0,2.2,1.467,3.243,3.204,3.243c2.432,0,3.976-1.544,4.517-3.127
	c0.116-0.347,0.193-0.733,0.193-1.081V18.534z"/>
<path fill="#FFFFFF" d="M99.261,15.214c0-2.2-0.039-4.092-0.154-5.829h2.972l0.116,3.667h0.154c0.849-2.509,2.895-4.092,5.173-4.092
	c0.386,0,0.656,0.039,0.965,0.116v3.204c-0.347-0.077-0.695-0.116-1.158-0.116c-2.393,0-4.092,1.814-4.555,4.362
	c-0.077,0.463-0.154,1.004-0.154,1.583v9.96h-3.359V15.214z"/>
<path fill="#FFFFFF" d="M117.713,28.069L109.22,2.05h3.629l4.053,12.816c1.12,3.513,2.085,6.678,2.779,9.728h0.077
	c0.733-3.011,1.814-6.292,2.972-9.689l4.401-12.855h3.59l-9.303,26.019H117.713z"/>
<path fill="#FFFFFF" d="M149.059,18.572c0,6.91-4.787,9.921-9.303,9.921c-5.057,0-8.956-3.706-8.956-9.612
	c0-6.254,4.092-9.921,9.265-9.921C145.43,8.96,149.059,12.859,149.059,18.572z M134.236,18.765c0,4.092,2.355,7.18,5.675,7.18
	c3.243,0,5.675-3.05,5.675-7.258c0-3.165-1.583-7.18-5.598-7.18C135.973,11.508,134.236,15.214,134.236,18.765z"/>
<path fill="#FFFFFF" d="M157.127,4.135c0.039,1.158-0.811,2.085-2.162,2.085c-1.197,0-2.046-0.927-2.046-2.085
	c0-1.197,0.888-2.123,2.123-2.123C156.316,2.011,157.127,2.938,157.127,4.135z M153.344,28.069V9.385h3.397v18.684H153.344z"/>
<path fill="#FFFFFF" d="M175.695,27.374c-0.888,0.463-2.857,1.081-5.366,1.081c-5.636,0-9.303-3.822-9.303-9.535
	c0-5.752,3.938-9.921,10.037-9.921c2.007,0,3.783,0.502,4.71,0.965L175,12.589c-0.811-0.463-2.084-0.888-3.938-0.888
	c-4.285,0-6.601,3.165-6.601,7.064c0,4.324,2.779,6.987,6.485,6.987c1.93,0,3.204-0.502,4.169-0.927L175.695,27.374z"/>
<path fill="#FFFFFF" d="M181.331,19.344c0.077,4.594,3.011,6.485,6.408,6.485c2.432,0,3.899-0.425,5.173-0.965l0.579,2.432
	c-1.197,0.54-3.243,1.158-6.215,1.158c-5.752,0-9.188-3.783-9.188-9.419s3.32-10.076,8.763-10.076c6.099,0,7.721,5.366,7.721,8.802
	c0,0.695-0.077,1.235-0.116,1.583H181.331z M191.29,16.912c0.039-2.162-0.888-5.52-4.71-5.52c-3.436,0-4.941,3.166-5.211,5.52
	H191.29z"/>
<path fill="#FFFFFF" d="M205.92,2.05v1.737h-3.359v8.763h-2.084V3.787h-3.359V2.05H205.92z M217.27,12.55l-0.386-6.177
	c-0.039-0.811-0.039-1.814-0.077-2.934h-0.116c-0.27,0.927-0.579,2.162-0.888,3.127l-1.892,5.829h-2.162l-1.892-5.984
	c-0.193-0.811-0.502-2.046-0.733-2.972h-0.116c0,0.965-0.039,1.969-0.077,2.934l-0.386,6.177h-2.007l0.772-10.5h3.127l1.814,5.134
	c0.232,0.811,0.425,1.583,0.695,2.664h0.039c0.27-0.965,0.502-1.853,0.733-2.625l1.814-5.173h3.011l0.811,10.5H217.27z"/>
<path fill="#FFFFFF" d="M9.833,0.858c2.442-0.522,5.054-0.211,7.303,0.877c2.838,1.352,5.06,3.93,5.968,6.941
	c0.504,1.678,0.66,3.485,0.32,5.208c-0.547-2.794-2.111-5.39-4.411-7.084c-1.961-1.474-4.411-2.294-6.867-2.263
	c-2.97-0.013-5.915,1.225-8.001,3.335c-1.595,1.575-2.68,3.639-3.131,5.83l-0.028,0.126c-0.168-0.44-0.156-0.913-0.193-1.374
	C0.681,9.746,1.58,7.012,3.279,4.902C4.907,2.85,7.266,1.389,9.833,0.858L9.833,0.858z"/>
<path fill="#FFFFFF" d="M0.986,13.827l0.028-0.126c0.007,0.214,0.009,0.429,0.05,0.641c0.614,2.879,2.401,5.481,4.863,7.093
	c2.231,1.487,5.005,2.136,7.665,1.796c2.65-0.312,5.166-1.614,6.968-3.58c1.491-1.615,2.527-3.668,2.858-5.846
	c0.464,2.535,0.037,5.226-1.209,7.483c-1.241,2.283-3.287,4.119-5.694,5.098c-2.664,1.097-5.752,1.124-8.436,0.081
	c-2.486-0.953-4.605-2.816-5.883-5.15C0.954,19.059,0.48,16.36,0.986,13.827L0.986,13.827z"/>
</svg>
