<?xml version="1.0" encoding="UTF-8" standalone="no"?>
<svg width="322px" height="41px" viewBox="0 0 322 41" version="1.1" xmlns="http://www.w3.org/2000/svg" xmlns:xlink="http://www.w3.org/1999/xlink" xmlns:sketch="http://www.bohemiancoding.com/sketch/ns">
    <!-- Generator: Sketch 3.3.3 (12081) - http://www.bohemiancoding.com/sketch -->
    <title>logo</title>
    <desc>Created with Sketch.</desc>
    <defs>
        <filter x="-50%" y="-50%" width="200%" height="200%" filterUnits="objectBoundingBox" id="filter-1">
            <feOffset dx="0" dy="2" in="SourceAlpha" result="shadowOffsetOuter1"></feOffset>
            <feGaussianBlur stdDeviation="0" in="shadowOffsetOuter1" result="shadowBlurOuter1"></feGaussianBlur>
            <feColorMatrix values="0 0 0 0 0   0 0 0 0 0   0 0 0 0 0  0 0 0 0.14 0" in="shadowBlurOuter1" type="matrix" result="shadowMatrixOuter1"></feColorMatrix>
            <feMerge>
                <feMergeNode in="shadowMatrixOuter1"></feMergeNode>
                <feMergeNode in="SourceGraphic"></feMergeNode>
            </feMerge>
        </filter>
        <filter x="-50%" y="-50%" width="200%" height="200%" filterUnits="objectBoundingBox" id="filter-2">
            <feOffset dx="0" dy="2" in="SourceAlpha" result="shadowOffsetOuter1"></feOffset>
            <feGaussianBlur stdDeviation="0" in="shadowOffsetOuter1" result="shadowBlurOuter1"></feGaussianBlur>
            <feColorMatrix values="0 0 0 0 0   0 0 0 0 0   0 0 0 0 0  0 0 0 0.14 0" in="shadowBlurOuter1" type="matrix" result="shadowMatrixOuter1"></feColorMatrix>
            <feMerge>
                <feMergeNode in="shadowMatrixOuter1"></feMergeNode>
                <feMergeNode in="SourceGraphic"></feMergeNode>
            </feMerge>
        </filter>
        <filter x="-50%" y="-50%" width="200%" height="200%" filterUnits="objectBoundingBox" id="filter-3">
            <feOffset dx="0" dy="2" in="SourceAlpha" result="shadowOffsetOuter1"></feOffset>
            <feGaussianBlur stdDeviation="0" in="shadowOffsetOuter1" result="shadowBlurOuter1"></feGaussianBlur>
            <feColorMatrix values="0 0 0 0 0   0 0 0 0 0   0 0 0 0 0  0 0 0 0.14 0" in="shadowBlurOuter1" type="matrix" result="shadowMatrixOuter1"></feColorMatrix>
            <feMerge>
                <feMergeNode in="shadowMatrixOuter1"></feMergeNode>
                <feMergeNode in="SourceGraphic"></feMergeNode>
            </feMerge>
        </filter>
        <filter x="-50%" y="-50%" width="200%" height="200%" filterUnits="objectBoundingBox" id="filter-4">
            <feOffset dx="0" dy="2" in="SourceAlpha" result="shadowOffsetOuter1"></feOffset>
            <feGaussianBlur stdDeviation="0" in="shadowOffsetOuter1" result="shadowBlurOuter1"></feGaussianBlur>
            <feColorMatrix values="0 0 0 0 0   0 0 0 0 0   0 0 0 0 0  0 0 0 0.14 0" in="shadowBlurOuter1" type="matrix" result="shadowMatrixOuter1"></feColorMatrix>
            <feMerge>
                <feMergeNode in="shadowMatrixOuter1"></feMergeNode>
                <feMergeNode in="SourceGraphic"></feMergeNode>
            </feMerge>
        </filter>
        <filter x="-50%" y="-50%" width="200%" height="200%" filterUnits="objectBoundingBox" id="filter-5">
            <feOffset dx="0" dy="2" in="SourceAlpha" result="shadowOffsetOuter1"></feOffset>
            <feGaussianBlur stdDeviation="0" in="shadowOffsetOuter1" result="shadowBlurOuter1"></feGaussianBlur>
            <feColorMatrix values="0 0 0 0 0   0 0 0 0 0   0 0 0 0 0  0 0 0 0.14 0" in="shadowBlurOuter1" type="matrix" result="shadowMatrixOuter1"></feColorMatrix>
            <feMerge>
                <feMergeNode in="shadowMatrixOuter1"></feMergeNode>
                <feMergeNode in="SourceGraphic"></feMergeNode>
            </feMerge>
        </filter>
        <filter x="-50%" y="-50%" width="200%" height="200%" filterUnits="objectBoundingBox" id="filter-6">
            <feOffset dx="0" dy="2" in="SourceAlpha" result="shadowOffsetOuter1"></feOffset>
            <feGaussianBlur stdDeviation="0" in="shadowOffsetOuter1" result="shadowBlurOuter1"></feGaussianBlur>
            <feColorMatrix values="0 0 0 0 0   0 0 0 0 0   0 0 0 0 0  0 0 0 0.14 0" in="shadowBlurOuter1" type="matrix" result="shadowMatrixOuter1"></feColorMatrix>
            <feMerge>
                <feMergeNode in="shadowMatrixOuter1"></feMergeNode>
                <feMergeNode in="SourceGraphic"></feMergeNode>
            </feMerge>
        </filter>
        <filter x="-50%" y="-50%" width="200%" height="200%" filterUnits="objectBoundingBox" id="filter-7">
            <feOffset dx="0" dy="2" in="SourceAlpha" result="shadowOffsetOuter1"></feOffset>
            <feGaussianBlur stdDeviation="0" in="shadowOffsetOuter1" result="shadowBlurOuter1"></feGaussianBlur>
            <feColorMatrix values="0 0 0 0 0   0 0 0 0 0   0 0 0 0 0  0 0 0 0.14 0" in="shadowBlurOuter1" type="matrix" result="shadowMatrixOuter1"></feColorMatrix>
            <feMerge>
                <feMergeNode in="shadowMatrixOuter1"></feMergeNode>
                <feMergeNode in="SourceGraphic"></feMergeNode>
            </feMerge>
        </filter>
        <filter x="-50%" y="-50%" width="200%" height="200%" filterUnits="objectBoundingBox" id="filter-8">
            <feOffset dx="0" dy="2" in="SourceAlpha" result="shadowOffsetOuter1"></feOffset>
            <feGaussianBlur stdDeviation="0" in="shadowOffsetOuter1" result="shadowBlurOuter1"></feGaussianBlur>
            <feColorMatrix values="0 0 0 0 0   0 0 0 0 0   0 0 0 0 0  0 0 0 0.14 0" in="shadowBlurOuter1" type="matrix" result="shadowMatrixOuter1"></feColorMatrix>
            <feMerge>
                <feMergeNode in="shadowMatrixOuter1"></feMergeNode>
                <feMergeNode in="SourceGraphic"></feMergeNode>
            </feMerge>
        </filter>
        <filter x="-50%" y="-50%" width="200%" height="200%" filterUnits="objectBoundingBox" id="filter-9">
            <feOffset dx="0" dy="2" in="SourceAlpha" result="shadowOffsetOuter1"></feOffset>
            <feGaussianBlur stdDeviation="0" in="shadowOffsetOuter1" result="shadowBlurOuter1"></feGaussianBlur>
            <feColorMatrix values="0 0 0 0 0   0 0 0 0 0   0 0 0 0 0  0 0 0 0.14 0" in="shadowBlurOuter1" type="matrix" result="shadowMatrixOuter1"></feColorMatrix>
            <feMerge>
                <feMergeNode in="shadowMatrixOuter1"></feMergeNode>
                <feMergeNode in="SourceGraphic"></feMergeNode>
            </feMerge>
        </filter>
        <filter x="-50%" y="-50%" width="200%" height="200%" filterUnits="objectBoundingBox" id="filter-10">
            <feOffset dx="0" dy="2" in="SourceAlpha" result="shadowOffsetOuter1"></feOffset>
            <feGaussianBlur stdDeviation="0" in="shadowOffsetOuter1" result="shadowBlurOuter1"></feGaussianBlur>
            <feColorMatrix values="0 0 0 0 0   0 0 0 0 0   0 0 0 0 0  0 0 0 0.14 0" in="shadowBlurOuter1" type="matrix" result="shadowMatrixOuter1"></feColorMatrix>
            <feMerge>
                <feMergeNode in="shadowMatrixOuter1"></feMergeNode>
                <feMergeNode in="SourceGraphic"></feMergeNode>
            </feMerge>
        </filter>
        <filter x="-50%" y="-50%" width="200%" height="200%" filterUnits="objectBoundingBox" id="filter-11">
            <feOffset dx="0" dy="2" in="SourceAlpha" result="shadowOffsetOuter1"></feOffset>
            <feGaussianBlur stdDeviation="0" in="shadowOffsetOuter1" result="shadowBlurOuter1"></feGaussianBlur>
            <feColorMatrix values="0 0 0 0 0   0 0 0 0 0   0 0 0 0 0  0 0 0 0.14 0" in="shadowBlurOuter1" type="matrix" result="shadowMatrixOuter1"></feColorMatrix>
            <feMerge>
                <feMergeNode in="shadowMatrixOuter1"></feMergeNode>
                <feMergeNode in="SourceGraphic"></feMergeNode>
            </feMerge>
        </filter>
        <filter x="-50%" y="-50%" width="200%" height="200%" filterUnits="objectBoundingBox" id="filter-12">
            <feOffset dx="0" dy="2" in="SourceAlpha" result="shadowOffsetOuter1"></feOffset>
            <feGaussianBlur stdDeviation="0" in="shadowOffsetOuter1" result="shadowBlurOuter1"></feGaussianBlur>
            <feColorMatrix values="0 0 0 0 0   0 0 0 0 0   0 0 0 0 0  0 0 0 0.14 0" in="shadowBlurOuter1" type="matrix" result="shadowMatrixOuter1"></feColorMatrix>
            <feMerge>
                <feMergeNode in="shadowMatrixOuter1"></feMergeNode>
                <feMergeNode in="SourceGraphic"></feMergeNode>
            </feMerge>
        </filter>
        <filter x="-50%" y="-50%" width="200%" height="200%" filterUnits="objectBoundingBox" id="filter-13">
            <feOffset dx="0" dy="2" in="SourceAlpha" result="shadowOffsetOuter1"></feOffset>
            <feGaussianBlur stdDeviation="0" in="shadowOffsetOuter1" result="shadowBlurOuter1"></feGaussianBlur>
            <feColorMatrix values="0 0 0 0 0   0 0 0 0 0   0 0 0 0 0  0 0 0 0.14 0" in="shadowBlurOuter1" type="matrix" result="shadowMatrixOuter1"></feColorMatrix>
            <feMerge>
                <feMergeNode in="shadowMatrixOuter1"></feMergeNode>
                <feMergeNode in="SourceGraphic"></feMergeNode>
            </feMerge>
        </filter>
    </defs>
    <g id="Page-1" stroke="none" stroke-width="1" fill="none" fill-rule="evenodd" sketch:type="MSPage">
        <g id="Desktop-HD" sketch:type="MSArtboardGroup" transform="translate(-315.000000, -579.000000)">
            <g id="logo" sketch:type="MSLayerGroup" transform="translate(315.000000, 579.194444)">
                <path d="M16.7975908,5.82869412 C25.0384105,5.82869412 31.8760462,11.8099584 33.2315595,19.6693551 C33.3906041,18.7402391 33.4791048,17.786943 33.4791048,16.8124626 C33.4791048,7.58913564 26.0093522,0.112555274 16.7975908,0.112555274 C7.5828367,0.112555274 0.11329791,7.58913564 0.11329791,16.8124626 C0.11329791,17.786943 0.202867389,18.7402391 0.362339541,19.6693551 C1.71592891,11.8099584 8.55719872,5.82869412 16.7975908,5.82869412" id="Fill-1" fill="#FFFFFF" filter="url(#filter-1)" sketch:type="MSShapeGroup"></path>
                <path d="M16.7975908,33.3550921 C8.55719872,33.3550921 1.71592891,27.3725439 0.362339541,19.5112214 C0.202867389,20.4424772 0.11329791,21.3957732 0.11329791,22.3700397 C0.11329791,31.5922967 7.5828367,39.070375 16.7975908,39.070375 C26.0093522,39.070375 33.4791048,31.5922967 33.4791048,22.3700397 C33.4791048,21.3957732 33.3906041,20.4424772 33.2315595,19.5112214 C31.8760462,27.3725439 25.0384105,33.3550921 16.7975908,33.3550921" id="Fill-2" fill="#384549" sketch:type="MSShapeGroup"></path>
                <path d="M48.1507565,19.0400299 C49.1916009,19.3141426 50.5075668,19.4239161 52.0973716,19.4239161 C57.8531192,19.4239161 61.3615066,16.5706613 61.3615066,11.5773584 C61.3615066,6.63883531 57.8531192,4.27924024 52.6452632,4.27924024 C50.5622918,4.27924024 48.9729146,4.44400747 48.1507565,4.66376843 L48.1507565,19.0400299 L48.1507565,19.0400299 Z M43.3815558,1.20686644 C45.6838549,0.82255223 48.6988619,0.493231761 52.5358132,0.493231761 C57.2502888,0.493231761 60.7037374,1.59075267 62.8963726,3.56603354 C64.8698939,5.3219814 66.1307072,8.01068296 66.1307072,11.3028177 C66.1307072,14.6503742 65.1437328,17.283868 63.2803029,19.2043691 C60.7037374,21.8934987 56.6472447,23.2653463 51.9877078,23.2653463 C50.5622918,23.2653463 49.247181,23.2101386 48.1507565,22.9360258 L48.1507565,37.7513812 L43.3815558,37.7513812 L43.3815558,1.20686644 L43.3815558,1.20686644 Z" id="Fill-3" fill="#FFFFFF" filter="url(#filter-2)" sketch:type="MSShapeGroup"></path>
                <path d="M84.9336711,24.197886 C79.6715176,24.0881125 73.6958011,25.0208662 73.6958011,30.1789363 C73.6958011,33.3612976 75.7794138,34.788139 78.1911628,34.788139 C81.699764,34.788139 83.947338,32.5930972 84.7145572,30.3434896 C84.8787323,29.7948361 84.9336711,29.2459686 84.9336711,28.8070887 L84.9336711,24.197886 L84.9336711,24.197886 Z M89.5934217,31.3862307 C89.5934217,33.690832 89.702658,35.9404396 89.9767107,37.7513812 L85.6461653,37.7513812 L85.2626626,34.4040388 L85.0982737,34.4040388 C83.6177052,36.4893071 80.7677283,38.3550284 76.9855021,38.3550284 C71.6132572,38.3550284 68.8720891,34.568806 68.8720891,30.7275898 C68.8720891,24.3076595 74.5735392,20.7957638 84.824221,20.8503295 L84.824221,20.3018901 C84.824221,18.1620559 84.2213906,14.1562865 78.7939932,14.2114942 C76.2723665,14.2114942 73.6958011,14.9244869 71.8327986,16.1867751 L70.7359466,12.9492061 C72.9287956,11.5773584 76.1627027,10.6443908 79.506915,10.6443908 C87.6196866,10.6443908 89.5934217,16.1867751 89.5934217,21.4544047 L89.5934217,31.3862307 L89.5934217,31.3862307 Z" id="Fill-4" fill="#FFFFFF" filter="url(#filter-3)" sketch:type="MSShapeGroup"></path>
                <path d="M102.968988,4.82810769 L102.968988,11.1932582 L109.875885,11.1932582 L109.875885,14.8697072 L102.968988,14.8697072 L102.968988,29.1911889 C102.968988,32.4837516 103.900382,34.348831 106.587039,34.348831 C107.902791,34.348831 108.669797,34.2394855 109.382719,34.0199385 L109.602046,37.6961735 C108.669797,38.025494 107.18987,38.3550284 105.326226,38.3550284 C103.078224,38.3550284 101.269092,37.586614 100.118584,36.3245399 C98.8024041,34.8433467 98.2542987,32.4837516 98.2542987,29.3559561 L98.2542987,14.8697072 L94.1432948,14.8697072 L94.1432948,11.1932582 L98.2542987,11.1932582 L98.2542987,6.25452111 L102.968988,4.82810769" id="Fill-5" fill="#FFFFFF" filter="url(#filter-4)" sketch:type="MSShapeGroup"></path>
                <path d="M115.302641,11.1932582 L120.126353,11.1932582 L120.126353,37.7513812 L115.302641,37.7513812 L115.302641,11.1932582 Z M120.674672,3.73058678 C120.674672,5.37676116 119.52395,6.69361506 117.60494,6.69361506 C115.850533,6.69361506 114.700025,5.37676116 114.700025,3.73058678 C114.700025,2.08462639 115.905686,0.712564757 117.714818,0.712564757 C119.468798,0.712564757 120.674672,2.02941867 120.674672,3.73058678 L120.674672,3.73058678 Z" id="Fill-6" fill="#FFFFFF" filter="url(#filter-5)" sketch:type="MSShapeGroup"></path>
                <path d="M144.958476,21.8934987 C145.013629,18.8752627 143.697663,14.1012928 138.270907,14.1012928 C133.337317,14.1012928 131.254346,18.5461562 130.870415,21.8934987 L144.958476,21.8934987 L144.958476,21.8934987 Z M130.815904,25.3504007 C130.925568,31.8796765 135.036786,34.568806 139.91565,34.568806 C143.368885,34.568806 145.507009,33.9653728 147.260989,33.1969583 L148.138086,36.6538603 C146.438403,37.4220608 143.478763,38.3550284 139.257881,38.3550284 C131.089957,38.3550284 126.210879,32.9224176 126.210879,24.9115207 C126.210879,16.8999818 130.925568,10.6443908 138.654623,10.6443908 C147.370866,10.6443908 149.618227,18.2166217 149.618227,23.1003651 C149.618227,24.0881125 149.563502,24.8015332 149.453838,25.3504007 L130.815904,25.3504007 L130.815904,25.3504007 Z" id="Fill-7" fill="#FFFFFF" filter="url(#filter-6)" sketch:type="MSShapeGroup"></path>
                <path d="M155.593088,18.381175 C155.593088,15.5829139 155.538363,13.3878721 155.373761,11.1932582 L159.649795,11.1932582 L159.923847,15.5829139 L160.033511,15.5829139 C161.34905,13.1135453 164.418995,10.6443908 168.804052,10.6443908 C172.476828,10.6443908 178.177851,12.8394326 178.177851,21.9478504 L178.177851,37.7513812 L173.353925,37.7513812 L173.353925,22.4421521 C173.353925,18.1620559 171.763906,14.5955944 167.214675,14.5955944 C164.089576,14.5955944 161.623316,16.8449881 160.746005,19.5339036 C160.526464,20.1373368 160.417228,20.960317 160.417228,21.7835112 L160.417228,37.7513812 L155.593088,37.7513812 L155.593088,18.381175" id="Fill-8" fill="#FFFFFF" filter="url(#filter-7)" sketch:type="MSShapeGroup"></path>
                <path d="M191.608142,4.82810769 L191.608142,11.1932582 L198.515253,11.1932582 L198.515253,14.8697072 L191.608142,14.8697072 L191.608142,29.1911889 C191.608142,32.4837516 192.539964,34.348831 195.226407,34.348831 C196.541732,34.348831 197.309379,34.2394855 198.021659,34.0199385 L198.240987,37.6961735 C197.309379,38.025494 195.82881,38.3550284 193.965166,38.3550284 C191.717592,38.3550284 189.908887,37.586614 188.757738,36.3245399 C187.442199,34.8433467 186.893453,32.4837516 186.893453,29.3559561 L186.893453,14.8697072 L182.782449,14.8697072 L182.782449,11.1932582 L186.893453,11.1932582 L186.893453,6.25452111 L191.608142,4.82810769" id="Fill-9" fill="#FFFFFF" filter="url(#filter-8)" sketch:type="MSShapeGroup"></path>
                <path d="M212.219811,37.7513812 L200.10463,0.767772477 L205.312914,0.767772477 L211.067593,18.9852501 C212.602459,23.978553 213.972722,28.4779822 215.015918,32.8128581 L215.12494,32.8128581 C216.165999,28.532548 217.647422,23.8683516 219.344753,19.0400299 L225.595377,0.767772477 L230.691646,0.767772477 L217.48282,37.7513812 L212.219811,37.7513812" id="Fill-10" fill="#FFFFFF" filter="url(#filter-9)" sketch:type="MSShapeGroup"></path>
                <path d="M235.736609,24.5269925 C235.736609,30.3434896 239.026524,34.7333592 243.740145,34.7333592 C248.344743,34.7333592 251.79926,30.3984833 251.79926,24.417219 C251.79926,19.9177898 249.550403,14.26606 243.849167,14.26606 C238.203511,14.26606 235.736609,19.5339036 235.736609,24.5269925 L235.736609,24.5269925 Z M256.730926,24.2528797 C256.730926,34.0745043 249.879609,38.3550284 243.519962,38.3550284 C236.39502,38.3550284 230.802806,33.0871848 230.802806,24.6917597 C230.802806,15.8572406 236.668645,10.6443908 243.960327,10.6443908 C251.579077,10.6443908 256.730926,16.1867751 256.730926,24.2528797 L256.730926,24.2528797 Z" id="Fill-11" fill="#FFFFFF" filter="url(#filter-10)" sketch:type="MSShapeGroup"></path>
                <path d="M262.816947,11.1932582 L267.641728,11.1932582 L267.641728,37.7513812 L262.816947,37.7513812 L262.816947,11.1932582 Z M268.188978,3.73058678 C268.188978,5.37676116 267.038898,6.69361506 265.119246,6.69361506 C263.364198,6.69361506 262.214117,5.37676116 262.214117,3.73058678 C262.214117,2.08462639 263.419778,0.712564757 265.228269,0.712564757 C266.983318,0.712564757 268.188978,2.02941867 268.188978,3.73058678 L268.188978,3.73058678 Z" id="Fill-12" fill="#FFFFFF" filter="url(#filter-11)" sketch:type="MSShapeGroup"></path>
                <path d="M294.555326,36.8184136 C293.296223,37.4220608 290.500116,38.3550284 286.936576,38.3550284 C278.93304,38.3550284 273.725612,32.9224176 273.725612,24.8015332 C273.725612,16.6254411 279.317826,10.6443908 287.977634,10.6443908 C290.827183,10.6443908 293.349665,11.3573835 294.664348,12.0712322 L293.569848,15.7474671 C292.417629,15.1440339 290.609138,14.485393 287.977634,14.485393 C281.89375,14.485393 278.603835,19.0400299 278.603835,24.5269925 C278.603835,30.67281 282.550023,34.4588185 287.813031,34.4588185 C290.553558,34.4588185 292.364187,33.8001776 293.73445,33.1969583 L294.555326,36.8184136" id="Fill-13" fill="#FFFFFF" filter="url(#filter-12)" sketch:type="MSShapeGroup"></path>
                <path d="M316.701861,21.8934987 C316.757441,18.8752627 315.442757,14.1012928 310.015146,14.1012928 C305.081343,14.1012928 302.997089,18.5461562 302.614441,21.8934987 L316.701861,21.8934987 L316.701861,21.8934987 Z M302.558861,25.3504007 C302.670021,31.8796765 306.780812,34.568806 311.659035,34.568806 C315.113552,34.568806 317.251249,33.9653728 319.00416,33.1969583 L319.882753,36.6538603 C318.183284,37.4220608 315.222575,38.3550284 311.000624,38.3550284 C302.832486,38.3550284 297.954263,32.9224176 297.954263,24.9115207 C297.954263,16.8999818 302.670021,10.6443908 310.397794,10.6443908 C319.11532,10.6443908 321.362039,18.2166217 321.362039,23.1003651 C321.362039,24.0881125 321.306459,24.8015332 321.197436,25.3504007 L302.558861,25.3504007 L302.558861,25.3504007 Z" id="Fill-14" fill="#FFFFFF" filter="url(#filter-13)" sketch:type="MSShapeGroup"></path>
            </g>
        </g>
    </g>
</svg>